<svg xmlns="http://www.w3.org/2000/svg" id="Layer_1" version="1.1" viewBox="0 0 2645.72 2644.2"><defs><style>.st0{fill:#fcfdff}.st1{isolation:isolate}.st2{fill:#020202}</style></defs><path d="M0 0h2645.72v2644.2H0z" style="fill:#fff"/><path d="M1299.56 1539.81c-.71 26.13-2.25 52.49-6.89 78.34-4.71 26.22-12.4 50.62-24.53 74.44a250.3 250.3 0 0 1-46.07 63.41c-18.58 18.57-40 34.15-63.41 46.07-23.82 12.12-48.22 19.82-74.44 24.53-25.84 4.65-52.2 6.18-78.34 6.89-11.99.33-423.43.32-435.42 0-26.13-.71-52.49-2.25-78.34-6.89-26.22-4.71-50.62-12.4-74.44-24.53a250.3 250.3 0 0 1-63.41-46.07c-18.57-18.58-34.15-40-46.07-63.41-12.12-23.82-19.82-48.22-24.53-74.44-4.65-25.84-6.18-52.2-6.89-78.34-.33-11.99-.46-23.99-.53-35.98-.09-14.24-.08-349.21 0-363.46.07-12 .21-23.99.53-35.98.71-26.13 2.25-52.49 6.89-78.34 4.71-26.22 12.4-50.62 24.53-74.44a250.3 250.3 0 0 1 46.07-63.41c18.58-18.57 40-34.15 63.41-46.07 23.82-12.12 48.22-19.82 74.44-24.53 25.84-4.65 52.2-6.18 78.34-6.89 11.99-.33 23.99-.46 35.98-.53 14.24-.09 349.21-.08 363.46 0 12 .07 23.99.21 35.98.53 26.13.71 52.49 2.25 78.34 6.89 26.22 4.71 50.62 12.4 74.44 24.53a250.3 250.3 0 0 1 63.41 46.07c18.57 18.58 34.15 40 46.07 63.41 12.12 23.82 19.82 48.22 24.53 74.44 4.65 25.84 6.18 52.2 6.89 78.34.33 11.99.32 423.43 0 435.42M2369.47 1503.83c-.07 12-.21 23.99-.53 35.98-.71 26.13-2.25 52.49-6.89 78.34-4.71 26.22-12.4 50.62-24.53 74.44a250.3 250.3 0 0 1-46.07 63.41c-18.58 18.57-40 34.15-63.41 46.07-23.82 12.12-48.22 19.82-74.44 24.53-25.84 4.65-52.2 6.18-78.34 6.89-11.99.33-423.43.32-435.42 0-26.13-.71-52.49-2.25-78.34-6.89-26.22-4.71-50.62-12.4-74.44-24.53a250.3 250.3 0 0 1-63.41-46.07c-18.57-18.58-34.15-40-46.07-63.41-12.12-23.82-19.82-48.22-24.53-74.44-4.65-25.84-6.18-52.2-6.89-78.34-.33-11.99-.32-423.43 0-435.42.71-26.13 2.25-52.49 6.89-78.34 4.71-26.22 12.4-50.62 24.53-74.44a250.3 250.3 0 0 1 46.07-63.41c18.58-18.57 40-34.15 63.41-46.07 23.82-12.12 48.22-19.82 74.44-24.53 25.84-4.65 52.2-6.18 78.34-6.89 11.99-.33 423.43-.32 435.42 0 26.13.71 52.49 2.25 78.34 6.89 26.22 4.71 50.62 12.4 74.44 24.53a250.3 250.3 0 0 1 63.41 46.07c18.57 18.58 34.15 40 46.07 63.41 12.12 23.82 19.82 48.22 24.53 74.44 4.65 25.84 6.18 52.2 6.89 78.34.33 11.99.61 385.19.53 399.44" class="st2"/><g class="st1"><g class="st1"><g class="st1"><path d="M706.56 1458.12c1.65 19.78 8.37 35.44 20.19 46.98 11.81 11.54 27.33 17.31 46.57 17.31s36.13-5.77 49.04-17.31c12.9-11.54 22.94-25.96 30.09-43.27 7.14-17.31 12.08-35.86 14.84-55.64 2.74-19.78 4.12-37.92 4.12-54.4h-1.65c-3.3 4.95-7.97 10.45-14.01 16.49-6.05 6.05-13.47 11.68-22.25 16.9-8.8 5.23-19.24 9.62-31.32 13.19-12.09 3.58-26.11 5.36-42.04 5.36-26.38 0-49.74-4.53-70.06-13.6-20.34-9.07-37.65-21.7-51.93-37.92-14.3-16.2-25.14-35.57-32.56-58.11-7.42-22.53-11.13-47.52-11.13-75.01 0-25.82 4.53-50 13.6-72.53s21.84-42.04 38.33-58.52c16.49-16.49 36.13-29.53 58.93-39.15 22.8-9.61 48.22-14.42 76.24-14.42 41.75 0 75.83 8.24 102.21 24.73s46.7 37.92 61 64.29c14.28 26.38 24.03 56.05 29.26 89.02 5.22 32.97 7.83 65.67 7.83 98.09 0 44.51-4.4 85.31-13.19 122.4-8.8 37.09-21.84 69.11-39.15 96.03-17.31 26.93-39.02 47.95-65.12 63.06-26.11 15.11-56.75 22.67-91.9 22.67-47.27 0-85.86-11.95-115.81-35.86-29.96-23.9-48.77-59.48-56.46-106.74l106.33-14.01zm75.01-146.72c26.38 0 46.57-8.1 60.58-24.32 14.01-16.2 21.02-38.87 21.02-68s-7.01-51.79-21.02-68c-14.01-16.2-34.21-24.32-60.58-24.32s-46.57 8.11-60.58 24.32-21.02 38.88-21.02 68 7.01 51.8 21.02 68c14.01 16.21 34.21 24.32 60.58 24.32" class="st0"/></g></g></g><path d="M1702.87 1476.25h-248.1v-77.48l245.63-354.43h103.03v344.54h70.06v87.37h-70.06v128.58h-100.56zm0-313.21h-1.65l-140.95 225.85h142.6zm418.73 107.15c0-21.97-3.03-36.68-9.07-44.1q-9.075-11.13-37.92-11.13h-89.02v-67.59h16.49c24.73 0 45.19-2.47 61.41-7.42 16.2-4.95 29.39-11.95 39.56-21.02 10.16-9.07 17.99-19.91 23.49-32.56 5.49-12.63 9.89-26.65 13.19-42.04h82.43v560.5H2121.6v-334.65Z" class="st0"/></svg>